<svg xmlns="http://www.w3.org/2000/svg" viewBox="0 0 1600 1000" role="img" aria-label="Agricultural fields at sunrise">
  <defs>
    <linearGradient id="sky" x1="0" x2="0" y1="0" y2="1">
      <stop offset="0" stop-color="#163b4a"/>
      <stop offset="0.52" stop-color="#1e5d45"/>
      <stop offset="1" stop-color="#07110f"/>
    </linearGradient>
    <linearGradient id="sun" x1="0" x2="1">
      <stop offset="0" stop-color="#f5a524"/>
      <stop offset="1" stop-color="#9ff4c4"/>
    </linearGradient>
  </defs>
  <rect width="1600" height="1000" fill="url(#sky)"/>
  <circle cx="1180" cy="230" r="118" fill="url(#sun)" opacity=".9"/>
  <path d="M0 560 C260 480 420 610 690 520 C980 420 1180 540 1600 430 L1600 1000 L0 1000 Z" fill="#173d2e"/>
  <path d="M0 660 C320 580 540 700 850 610 C1110 535 1290 630 1600 560 L1600 1000 L0 1000 Z" fill="#0f2b22"/>
  <g opacity=".55" stroke="#9ff4c4" stroke-width="5">
    <path d="M110 1000 C350 800 620 685 980 595"/>
    <path d="M260 1000 C500 820 760 700 1120 610"/>
    <path d="M430 1000 C670 830 900 720 1260 640"/>
    <path d="M600 1000 C820 850 1050 755 1430 700"/>
  </g>
  <g opacity=".34" stroke="#f5a524" stroke-width="3">
    <path d="M0 820 C330 730 670 715 1000 760 C1240 790 1420 760 1600 700"/>
    <path d="M0 900 C330 810 710 800 1040 835 C1280 860 1450 830 1600 780"/>
  </g>
</svg>
