<svg xmlns="http://www.w3.org/2000/svg" viewBox="0 0 900 540" role="img" aria-label="Solar irrigation in a field">
  <rect width="900" height="540" fill="#0b1815"/>
  <rect y="250" width="900" height="290" fill="#143425"/>
  <circle cx="705" cy="120" r="72" fill="#f5a524"/>
  <path d="M0 245 C150 205 260 275 390 230 C570 170 675 250 900 190 L900 300 L0 300 Z" fill="#1f6a47"/>
  <g fill="#244f78" stroke="#8bd3ff" stroke-width="8">
    <path d="M150 190 h220 l-38 100 h-220 z"/>
    <path d="M415 190 h220 l-38 100 h-220 z"/>
  </g>
  <g stroke="#9ff4c4" stroke-width="7" fill="none">
    <path d="M145 390 C285 330 415 430 570 360 C675 315 760 335 870 300"/>
    <path d="M60 455 C230 390 390 485 570 425 C705 380 800 395 900 355"/>
  </g>
</svg>
